<svg width="32" height="96" viewBox="0 0 32 96" fill="none" xmlns="http://www.w3.org/2000/svg">
<path fill-rule="evenodd" clip-rule="evenodd" d="M10 2C8.34315 2 7 3.34315 7 5V27C7 28.6569 8.34315 30 10 30H22C23.6569 30 25 28.6569 25 27V5C25 3.34315 23.6569 2 22 2H10ZM9 26V6H23V26H9Z" fill="black"/>
<path fill-rule="evenodd" clip-rule="evenodd" d="M10 34C8.34315 34 7 35.3431 7 37V59C7 60.6569 8.34315 62 10 62H22C23.6569 62 25 60.6569 25 59V37C25 35.3431 23.6569 34 22 34H10ZM9 58V38H23V58H9Z" fill="#949494"/>
<path fill-rule="evenodd" clip-rule="evenodd" d="M10 66C8.34315 66 7 67.3431 7 69V91C7 92.6569 8.34315 94 10 94H22C23.6569 94 25 92.6569 25 91V69C25 67.3431 23.6569 66 22 66H10ZM9 90V70H23V90H9Z" fill="white"/>
</svg>
