<?xml version="1.0" encoding="UTF-8"?>
<svg width="150px" height="150px" viewBox="0 0 150 150" version="1.1" xmlns="http://www.w3.org/2000/svg" xmlns:xlink="http://www.w3.org/1999/xlink">
    <title>TW Logo</title>
    <defs>
        <polygon id="path-1" points="0 0 146.936095 0 146.936095 82 0 82"></polygon>
    </defs>
    <g id="TW-Logo" stroke="none" stroke-width="1" fill="none" fill-rule="evenodd">
        <g id="Group-14" transform="translate(0.000000, 34.000000)">
            <path d="M145.151058,41.0010395 C145.151058,62.6542579 113.05658,80.2091655 73.4677892,80.2091655 C33.8789983,80.2091655 1.7845202,62.6542579 1.7845202,41.0010395 C1.7845202,19.3452223 33.8789983,1.79291351 73.4677892,1.79291351 C113.05658,1.79291351 145.151058,19.3452223 145.151058,41.0010395" id="Fill-1" fill="#FFFFFF"></path>
            <g id="Group-5">
                <mask id="mask-2" fill="white">
                    <use xlink:href="#path-1"></use>
                </mask>
                <g id="Clip-4"></g>
                <path d="M73.4664966,3.58634678 C34.9246863,3.58634678 3.56697229,20.3694102 3.56697229,41.0012994 C3.56697229,61.6305898 34.9246863,78.416252 73.4664966,78.416252 C112.010892,78.416252 143.368606,61.6305898 143.368606,41.0012994 C143.368606,20.3694102 112.010892,3.58634678 73.4664966,3.58634678 M73.4664966,82 C54.026265,82 35.7234937,77.8471144 21.9266166,70.2975945 C7.78850131,62.5661585 -0.000517027437,52.1605553 -0.000517027437,41.0012994 C-0.000517027437,29.8420435 7.78850131,19.4364403 21.9266166,11.7024055 C35.7234937,4.15548442 54.026265,0 73.4664966,0 C92.9093134,0 111.212085,4.15548442 125.006377,11.7024055 C139.147077,19.4364403 146.936095,29.8420435 146.936095,41.0012994 C146.936095,52.1605553 139.147077,62.5661585 125.006377,70.2975945 C111.212085,77.8471144 92.9093134,82 73.4664966,82" id="Fill-3" fill="#FF6600" mask="url(#mask-2)"></path>
            </g>
            <polygon id="Fill-6" fill="#FFFFFF" points="10.854991 56.0660349 14.3449262 47.5965392 23.5505998 47.5965392 34.7364883 20.4546509 27.2370054 20.4546509 23.8608162 28.6434761 4.43092513 28.6434761 11.2970495 11.9851551 88.9649111 11.9851551 82.0962016 28.6434761 62.6663105 28.6434761 66.0450848 20.4546509 58.5404315 20.4546509 47.3519578 47.5965392 56.5602165 47.5965392 53.0702813 56.0660349"></polygon>
            <polygon id="Fill-8" fill="#FFFFFF" points="99.6156763 75.5367794 102.552392 44.2653947 84.9140011 75.5367794 64.3802564 75.5367794 63.7184613 39.1639464 59.9674273 39.1639464 62.6430443 30.5463189 90.1463188 30.5463189 87.4732869 39.1639464 81.1603819 39.1639464 79.4877982 62.599943 98.1860954 30.5463189 117.184269 30.5463189 115.23249 62.5609609 128.396009 39.1639464 122.300255 39.1639464 124.975872 30.5463189 150 30.5463189 147.324383 39.1639464 143.811182 39.1639464 120.208879 75.5367794"></polygon>
            <polygon id="Fill-10" fill="#00427A" points="67.9779919 19.15499 64.6018027 27.346414 81.2345753 27.346414 87.0278678 13.2868951 12.1622949 13.2868951 6.36641734 27.346414 22.99919 27.346414 26.372794 19.15499 36.6745657 19.15499 24.41326 48.8956803 15.2075865 48.8956803 12.7878981 54.766374 52.2060699 54.766374 54.6257583 48.8956803 45.4174997 48.8956803 57.6788053 19.15499"></polygon>
            <polygon id="Fill-12" fill="#00427A" points="125.926427 31.8483187 124.057373 37.8645454 130.610696 37.8645454 114.828433 65.9160143 113.732335 65.9160143 115.810785 31.8483187 98.9272542 31.8483187 79.0527196 65.9160143 77.9566214 65.9160143 79.9601027 37.8645454 86.5211809 37.8645454 88.3876499 31.8483187 63.5935992 31.8483187 61.724545 37.8645454 64.9895733 37.8645454 65.6487833 74.2373784 84.1609506 74.2373784 103.068644 40.7154312 104.182838 40.7154312 101.034141 74.2373784 119.510117 74.2373784 143.107249 37.8645454 146.374862 37.8645454 148.243916 31.8483187"></polygon>
        </g>
    </g>
</svg>