<?xml version="1.0" encoding="UTF-8"?>
<svg width="300px" height="40px" viewBox="0 0 300 40" version="1.1" xmlns="http://www.w3.org/2000/svg" xmlns:xlink="http://www.w3.org/1999/xlink">
    <title>TW Text Logo</title>
    <g id="TW-Text-Logo" stroke="none" stroke-width="1" fill="none" fill-rule="evenodd">
        <path d="M102.933378,10.0277913 C105.773297,10.0277913 107.991234,10.690408 110.019927,12.3167137 L107.369253,15.7648937 C106.072302,14.7728986 104.583584,14.440947 102.933378,14.440947 C101.636428,14.440947 100.364709,14.8552432 100.364709,15.8755442 C100.364709,17.1982043 101.636428,17.3924861 103.502371,17.5854812 C107.260753,17.9984908 111.181884,19.5437386 111.181884,23.9839136 C111.181884,28.3687633 107.127021,30.2446761 102.88039,30.2716954 C99.4727403,30.3000014 97.0390651,29.69271 94.4148846,26.8801274 L97.3633028,23.4319475 C99.2292466,25.280841 101.310928,25.6102194 102.906884,25.6102194 C104.664328,25.6102194 105.881797,24.9759086 105.881797,23.9002824 C105.881797,22.9353066 104.800584,22.3293019 102.71764,22.1350201 C98.5795096,21.7490298 95.0103717,20.6734035 95.0103717,15.8755442 C95.0103717,11.7930536 98.9327646,10.0277913 102.933378,10.0277913 Z M16.5697326,10.855364 L16.5697326,15.3715589 L10.9648515,15.3715589 L10.9648515,30.2501848 L5.57809397,30.2501848 L5.57809397,15.3715589 L0,15.3715589 L0,10.855364 L16.5697326,10.855364 Z M34.5131323,10.855364 L34.5131323,15.4542825 L25.2206098,15.4542825 L25.2206098,18.2242326 L33.9832955,18.2242326 L33.9832955,22.6848475 L25.2206098,22.6848475 L25.2206098,25.62283 L34.8836476,25.62283 L34.8836476,30.2501848 L20.0580974,30.2501848 L20.0580974,10.855364 L34.5131323,10.855364 Z M274.668836,10 C277.48226,10 280.159429,10.5789854 281.836129,13.5035052 L280.050929,14.6344568 C279.022705,12.9515391 276.832523,12.1795585 274.723086,12.1525392 C272.315905,12.1525392 269.747236,13.1175149 269.747236,15.4617626 C269.747236,17.5576899 272.100167,18.1649813 274.884574,18.6333162 C275.036019,18.6576078 275.18738,18.6821609 275.33842,18.7071946 L275.790345,18.7839564 C279.244123,19.3868763 282.40386,20.3599279 282.40386,24.3691319 C282.376104,28.699943 278.319979,30.1062343 274.696592,30.1062343 C271.34193,30.1062343 268.15128,28.8646322 266.691579,25.6377533 L268.638267,24.4797825 C269.855735,26.7687049 272.396649,27.8726371 274.723086,27.8726371 C277.021767,27.8726371 280.077423,27.1276759 280.077423,24.2880739 C280.105179,21.8872143 277.454504,21.1975783 274.614586,20.7562628 C270.964704,20.1772773 267.420799,19.3229522 267.420799,15.4064373 C267.366549,11.379272 271.39618,10 274.668836,10 Z M234.730574,10.0829879 C241.139631,10.1112939 244.330281,15.0198037 244.303951,20.1225954 C244.276031,25.1700618 241.193881,30.1068776 234.70408,30.1068776 C228.213018,30.1068776 225.075356,25.1970811 225.075356,20.1225954 C225.075356,14.5231629 228.754256,10.0829879 234.730574,10.0829879 Z M263.340703,10.4154542 L263.367197,10.4424735 L263.367197,22.0260422 C263.367197,27.3758676 259.823291,30.0790863 255.686422,30.0790863 C251.656791,30.0790863 247.924904,27.4311929 247.924904,22.0260422 L247.924904,10.4424735 L250.251341,10.4424735 L250.251341,22.0260422 C250.251341,25.8589258 252.76576,27.8725085 255.686422,27.8725085 C258.607085,27.8725085 261.04076,25.7765812 261.04076,21.9977362 L261.04076,10.4154542 L263.340703,10.4154542 Z M122.943638,10.4148109 L128.162982,26.3832292 L133.408819,10.4148109 L134.924031,10.4148109 L140.224119,26.3832292 L145.389213,10.4148109 L148.066382,10.4148109 L141.441587,29.7477779 L139.088656,29.7477779 L134.167056,15.2963014 L129.27195,29.7477779 L126.892525,29.7477779 L120.292963,10.4148109 L122.943638,10.4148109 Z M299.438198,10.4148109 L299.438198,12.6213887 L288.459535,12.6213887 L288.459535,18.6608502 L298.978967,18.6608502 L298.978967,20.8957339 L288.459535,20.8957339 L288.459535,27.4318362 L299.870936,27.4318362 L299.870936,29.7207586 L286.133098,29.7207586 L286.133098,10.4148109 L299.438198,10.4148109 Z M66.7799927,10.4148109 L74.7862666,20.9780785 C74.6512727,18.6608502 74.6512727,17.778219 74.6235169,17.0345444 L74.6235169,10.4148109 L80.0056103,10.4148109 L80.0056103,29.7207586 L75.4612361,29.7207586 L67.5647236,19.3234668 L67.6467293,23.5423407 L67.6467293,29.7207586 L62.2381418,29.7207586 L62.2381418,10.4148109 L66.7799927,10.4148109 Z M208.067891,10.4154542 L208.067891,18.772144 L218.885066,18.772144 L218.885066,10.4154542 L221.236735,10.4154542 L221.236735,29.7201153 L218.885066,29.7201153 L218.885066,21.0057412 L208.067891,21.0057412 L208.067891,29.7201153 L205.71496,29.7201153 L205.71496,10.4154542 L208.067891,10.4154542 Z M201.417107,10.4148109 L201.417107,12.6213887 L190.437183,12.6213887 L190.437183,18.6608502 L200.957876,18.6608502 L200.957876,20.8957339 L190.437183,20.8957339 L190.437183,27.4318362 L201.849845,27.4318362 L201.849845,29.7207586 L188.110746,29.7207586 L188.110746,10.4148109 L201.417107,10.4148109 Z M177.458213,10.4145536 C181.731338,10.4145536 183.867269,13.4484373 183.867269,16.5929715 C183.895025,19.514918 182.326825,22.2464426 178.432188,22.5771076 L184.679756,29.7205013 L181.703582,29.7205013 L175.809269,22.7701028 L171.210645,22.7701028 L171.210645,29.7205013 L168.858975,29.7205013 L168.858975,10.4145536 L177.458213,10.4145536 Z M43.8230811,10.4148109 L51.8280933,20.9780785 C51.6930994,18.6608502 51.6930994,17.778219 51.6653437,17.0345444 L51.6653437,10.4148109 L57.047437,10.4148109 L57.047437,29.7207586 L52.5043245,29.7207586 L44.6065504,19.3234668 L44.688556,23.5423407 L44.688556,29.7207586 L39.2799686,29.7207586 L39.2799686,10.4148109 L43.8230811,10.4148109 Z M157.394713,10.4145536 L165.885451,29.7205013 L163.344537,29.7205013 L161.477332,25.4720348 L150.660157,25.4720348 L148.821969,29.7205013 L146.252038,29.7205013 L154.744038,10.4145536 L157.394713,10.4145536 Z M90.5228969,10.4148109 L90.5228969,29.7207586 L85.1950534,29.7207586 L85.1950534,10.4148109 L90.5228969,10.4148109 Z M234.730574,12.2895657 C229.917474,12.2895657 227.428287,15.9037215 227.428287,20.1225954 C227.428287,24.0391102 229.754724,27.8449745 234.730574,27.8449745 C239.705163,27.8449745 241.950856,23.9284597 241.950856,20.1225954 C241.97735,16.2060806 239.678669,12.344891 234.730574,12.2895657 Z M156.068745,12.8411459 L151.579882,23.2667436 L160.558869,23.2667436 L156.068745,12.8411459 Z M177.458213,12.5658061 L171.210645,12.5658061 L171.210645,20.6188502 L177.349713,20.6188502 C180.189632,20.6188502 181.514338,18.825282 181.514338,16.6470101 C181.540832,14.7170587 180.189632,12.5658061 177.458213,12.5658061 Z" id="Text" fill="#FFFFFF"></path>
    </g>
</svg>